<mxfile host="app.diagrams.net" agent="Mozilla/5.0 (Windows NT 10.0; Win64; x64) AppleWebKit/537.36 (KHTML, like Gecko) Chrome/130.0.0.0 Safari/537.36" version="24.8.4">
  <diagram name="Page-1" id="8UfXzrM6JscicI2gM-Bm">
    <mxGraphModel dx="2299" dy="1312" grid="1" gridSize="10" guides="1" tooltips="1" connect="1" arrows="1" fold="1" page="1" pageScale="1" pageWidth="850" pageHeight="1100" math="0" shadow="0">
      <root>
        <mxCell id="0" />
        <mxCell id="1" parent="0" />
        <mxCell id="wUI4A6ek1P1sfGZqBGmO-8" value="stadion" style="swimlane;fontStyle=1;childLayout=stackLayout;horizontal=1;startSize=26;horizontalStack=0;resizeParent=1;resizeParentMax=0;resizeLast=0;collapsible=1;marginBottom=0;align=center;fontSize=14;strokeColor=#666666;fillColor=#f5f5f5;fontColor=#333333;whiteSpace=wrap;" vertex="1" parent="1">
          <mxGeometry x="200" y="260" width="160" height="80" as="geometry" />
        </mxCell>
        <mxCell id="wUI4A6ek1P1sfGZqBGmO-9" value="naam&lt;br&gt;&lt;u&gt;nummer&lt;/u&gt;&lt;div&gt;aantallingengen&lt;/div&gt;" style="text;strokeColor=none;fillColor=none;spacingLeft=4;spacingRight=4;overflow=hidden;rotatable=0;points=[[0,0.5],[1,0.5]];portConstraint=eastwest;fontSize=12;fontStyle=0;html=1;" vertex="1" parent="wUI4A6ek1P1sfGZqBGmO-8">
          <mxGeometry y="26" width="160" height="54" as="geometry" />
        </mxCell>
        <mxCell id="wUI4A6ek1P1sfGZqBGmO-10" value="activiteit" style="swimlane;fontStyle=1;childLayout=stackLayout;horizontal=1;startSize=26;horizontalStack=0;resizeParent=1;resizeParentMax=0;resizeLast=0;collapsible=1;marginBottom=0;align=center;fontSize=14;strokeColor=#666666;fillColor=#f5f5f5;fontColor=#333333;" vertex="1" parent="1">
          <mxGeometry x="-180" y="260" width="140" height="110" as="geometry" />
        </mxCell>
        <mxCell id="wUI4A6ek1P1sfGZqBGmO-11" value="naam&#xa;datum&#xa;omschriving" style="text;strokeColor=none;fillColor=none;spacingLeft=4;spacingRight=4;overflow=hidden;rotatable=0;points=[[0,0.5],[1,0.5]];portConstraint=eastwest;fontSize=12;" vertex="1" parent="wUI4A6ek1P1sfGZqBGmO-10">
          <mxGeometry y="26" width="140" height="84" as="geometry" />
        </mxCell>
        <mxCell id="wUI4A6ek1P1sfGZqBGmO-22" value="U" style="ellipse;whiteSpace=wrap;html=1;strokeColor=#b85450;fillColor=#f8cecc;" vertex="1" parent="1">
          <mxGeometry y="290" width="40" height="40" as="geometry" />
        </mxCell>
        <mxCell id="wUI4A6ek1P1sfGZqBGmO-23" value="" style="endArrow=none;html=1;rounded=0;entryX=0;entryY=1;entryDx=0;entryDy=0;" edge="1" parent="1" target="wUI4A6ek1P1sfGZqBGmO-22">
          <mxGeometry width="50" height="50" relative="1" as="geometry">
            <mxPoint x="-140" y="310" as="sourcePoint" />
            <mxPoint x="-290" y="380" as="targetPoint" />
          </mxGeometry>
        </mxCell>
        <mxCell id="wUI4A6ek1P1sfGZqBGmO-24" value="" style="endArrow=none;html=1;rounded=0;entryX=0;entryY=0;entryDx=0;entryDy=0;" edge="1" parent="1" target="wUI4A6ek1P1sfGZqBGmO-22">
          <mxGeometry width="50" height="50" relative="1" as="geometry">
            <mxPoint x="-150" y="300" as="sourcePoint" />
            <mxPoint x="30" y="180" as="targetPoint" />
          </mxGeometry>
        </mxCell>
        <mxCell id="wUI4A6ek1P1sfGZqBGmO-26" value="Tribuneblokken" style="swimlane;fontStyle=1;childLayout=stackLayout;horizontal=1;startSize=26;horizontalStack=0;resizeParent=1;resizeParentMax=0;resizeLast=0;collapsible=1;marginBottom=0;align=center;fontSize=14;strokeColor=#666666;fillColor=#f5f5f5;fontColor=#333333;" vertex="1" parent="1">
          <mxGeometry x="-190" y="450" width="160" height="80" as="geometry" />
        </mxCell>
        <mxCell id="wUI4A6ek1P1sfGZqBGmO-27" value="&lt;u&gt;blooknummer&lt;/u&gt;&lt;br&gt;max capaciteit" style="text;strokeColor=none;fillColor=none;spacingLeft=4;spacingRight=4;overflow=hidden;rotatable=0;points=[[0,0.5],[1,0.5]];portConstraint=eastwest;fontSize=12;html=1;" vertex="1" parent="wUI4A6ek1P1sfGZqBGmO-26">
          <mxGeometry y="26" width="160" height="54" as="geometry" />
        </mxCell>
        <mxCell id="wUI4A6ek1P1sfGZqBGmO-39" value="" style="triangle;whiteSpace=wrap;html=1;direction=north;" vertex="1" parent="1">
          <mxGeometry x="-135.34" y="530" width="50" height="20" as="geometry" />
        </mxCell>
        <mxCell id="wUI4A6ek1P1sfGZqBGmO-40" value="" style="endArrow=none;html=1;rounded=0;entryX=0;entryY=0.5;entryDx=0;entryDy=0;" edge="1" target="wUI4A6ek1P1sfGZqBGmO-39" parent="1">
          <mxGeometry width="50" height="50" relative="1" as="geometry">
            <mxPoint x="-110.34" y="580" as="sourcePoint" />
            <mxPoint x="-65.34" y="490" as="targetPoint" />
          </mxGeometry>
        </mxCell>
        <mxCell id="wUI4A6ek1P1sfGZqBGmO-41" value="" style="endArrow=none;html=1;rounded=0;" edge="1" parent="1">
          <mxGeometry width="50" height="50" relative="1" as="geometry">
            <mxPoint x="-55.34" y="580" as="sourcePoint" />
            <mxPoint x="-165.34" y="580" as="targetPoint" />
          </mxGeometry>
        </mxCell>
        <mxCell id="wUI4A6ek1P1sfGZqBGmO-42" value="" style="endArrow=none;html=1;rounded=0;" edge="1" parent="1">
          <mxGeometry width="50" height="50" relative="1" as="geometry">
            <mxPoint x="-165.34" y="610" as="sourcePoint" />
            <mxPoint x="-165.34" y="580" as="targetPoint" />
          </mxGeometry>
        </mxCell>
        <mxCell id="wUI4A6ek1P1sfGZqBGmO-43" value="" style="endArrow=none;html=1;rounded=0;" edge="1" parent="1">
          <mxGeometry width="50" height="50" relative="1" as="geometry">
            <mxPoint x="-55.34" y="610" as="sourcePoint" />
            <mxPoint x="-55.34" y="580" as="targetPoint" />
          </mxGeometry>
        </mxCell>
        <mxCell id="wUI4A6ek1P1sfGZqBGmO-44" value="{ Mandatory, OR}" style="text;html=1;align=center;verticalAlign=middle;whiteSpace=wrap;rounded=0;fontSize=14;" vertex="1" parent="1">
          <mxGeometry x="-125.34" y="550" width="145.34" height="30" as="geometry" />
        </mxCell>
        <mxCell id="wUI4A6ek1P1sfGZqBGmO-45" value="staantribunes" style="swimlane;fontStyle=1;childLayout=stackLayout;horizontal=1;startSize=26;horizontalStack=0;resizeParent=1;resizeParentMax=0;resizeLast=0;collapsible=1;marginBottom=0;align=center;fontSize=14;strokeColor=#666666;fillColor=#f5f5f5;fontColor=#333333;" vertex="1" parent="1">
          <mxGeometry x="-285.34" y="610" width="160" height="56" as="geometry" />
        </mxCell>
        <mxCell id="wUI4A6ek1P1sfGZqBGmO-46" value="veikligeheidsbarriere" style="text;strokeColor=none;fillColor=none;spacingLeft=4;spacingRight=4;overflow=hidden;rotatable=0;points=[[0,0.5],[1,0.5]];portConstraint=eastwest;fontSize=12;" vertex="1" parent="wUI4A6ek1P1sfGZqBGmO-45">
          <mxGeometry y="26" width="160" height="30" as="geometry" />
        </mxCell>
        <mxCell id="wUI4A6ek1P1sfGZqBGmO-47" value="zittribunes" style="swimlane;fontStyle=1;childLayout=stackLayout;horizontal=1;startSize=26;horizontalStack=0;resizeParent=1;resizeParentMax=0;resizeLast=0;collapsible=1;marginBottom=0;align=center;fontSize=14;strokeColor=#666666;fillColor=#f5f5f5;fontColor=#333333;" vertex="1" parent="1">
          <mxGeometry x="-100" y="610" width="160" height="56" as="geometry" />
        </mxCell>
        <mxCell id="wUI4A6ek1P1sfGZqBGmO-48" value="mobiel" style="text;strokeColor=none;fillColor=none;spacingLeft=4;spacingRight=4;overflow=hidden;rotatable=0;points=[[0,0.5],[1,0.5]];portConstraint=eastwest;fontSize=12;" vertex="1" parent="wUI4A6ek1P1sfGZqBGmO-47">
          <mxGeometry y="26" width="160" height="30" as="geometry" />
        </mxCell>
        <mxCell id="wUI4A6ek1P1sfGZqBGmO-49" value="verzamelpunt" style="swimlane;fontStyle=1;childLayout=stackLayout;horizontal=1;startSize=26;horizontalStack=0;resizeParent=1;resizeParentMax=0;resizeLast=0;collapsible=1;marginBottom=0;align=center;fontSize=14;strokeColor=#666666;fillColor=#f5f5f5;fontColor=#333333;dashed=1;dashPattern=8 8;" vertex="1" parent="1">
          <mxGeometry x="-285.34" y="720" width="160" height="90" as="geometry" />
        </mxCell>
        <mxCell id="wUI4A6ek1P1sfGZqBGmO-50" value="naam&#xa;nummer&#xa;omschrijving" style="text;strokeColor=none;fillColor=none;spacingLeft=4;spacingRight=4;overflow=hidden;rotatable=0;points=[[0,0.5],[1,0.5]];portConstraint=eastwest;fontSize=12;" vertex="1" parent="wUI4A6ek1P1sfGZqBGmO-49">
          <mxGeometry y="26" width="160" height="64" as="geometry" />
        </mxCell>
        <mxCell id="wUI4A6ek1P1sfGZqBGmO-51" value="" style="endArrow=none;html=1;rounded=0;entryX=0.516;entryY=1.006;entryDx=0;entryDy=0;entryPerimeter=0;exitX=0.5;exitY=0;exitDx=0;exitDy=0;" edge="1" parent="1" source="wUI4A6ek1P1sfGZqBGmO-49" target="wUI4A6ek1P1sfGZqBGmO-46">
          <mxGeometry width="50" height="50" relative="1" as="geometry">
            <mxPoint x="110" y="590" as="sourcePoint" />
            <mxPoint x="160" y="540" as="targetPoint" />
          </mxGeometry>
        </mxCell>
        <mxCell id="wUI4A6ek1P1sfGZqBGmO-52" value="U" style="ellipse;whiteSpace=wrap;html=1;strokeColor=#b85450;fillColor=#f8cecc;" vertex="1" parent="1">
          <mxGeometry x="-400" y="746" width="40" height="40" as="geometry" />
        </mxCell>
        <mxCell id="wUI4A6ek1P1sfGZqBGmO-53" value="" style="endArrow=none;html=1;rounded=0;entryX=1;entryY=0;entryDx=0;entryDy=0;exitX=0.158;exitY=0.219;exitDx=0;exitDy=0;exitPerimeter=0;" edge="1" parent="1" source="wUI4A6ek1P1sfGZqBGmO-50" target="wUI4A6ek1P1sfGZqBGmO-52">
          <mxGeometry width="50" height="50" relative="1" as="geometry">
            <mxPoint x="-250" y="660" as="sourcePoint" />
            <mxPoint x="-200" y="610" as="targetPoint" />
          </mxGeometry>
        </mxCell>
        <mxCell id="wUI4A6ek1P1sfGZqBGmO-54" value="" style="endArrow=none;html=1;rounded=0;entryX=0.158;entryY=0.375;entryDx=0;entryDy=0;entryPerimeter=0;exitX=1;exitY=0.5;exitDx=0;exitDy=0;" edge="1" parent="1" source="wUI4A6ek1P1sfGZqBGmO-52" target="wUI4A6ek1P1sfGZqBGmO-50">
          <mxGeometry width="50" height="50" relative="1" as="geometry">
            <mxPoint x="-250" y="660" as="sourcePoint" />
            <mxPoint x="-200" y="610" as="targetPoint" />
          </mxGeometry>
        </mxCell>
        <mxCell id="wUI4A6ek1P1sfGZqBGmO-55" value="hulpverlenersposten" style="swimlane;fontStyle=1;childLayout=stackLayout;horizontal=1;startSize=26;horizontalStack=0;resizeParent=1;resizeParentMax=0;resizeLast=0;collapsible=1;marginBottom=0;align=center;fontSize=14;strokeColor=#666666;fillColor=#f5f5f5;fontColor=#333333;" vertex="1" parent="1">
          <mxGeometry x="-540" y="400" width="160" height="70" as="geometry" />
        </mxCell>
        <mxCell id="wUI4A6ek1P1sfGZqBGmO-56" value="nummer&#xa;locatie&#xa;" style="text;strokeColor=none;fillColor=none;spacingLeft=4;spacingRight=4;overflow=hidden;rotatable=0;points=[[0,0.5],[1,0.5]];portConstraint=eastwest;fontSize=12;" vertex="1" parent="wUI4A6ek1P1sfGZqBGmO-55">
          <mxGeometry y="26" width="160" height="44" as="geometry" />
        </mxCell>
        <mxCell id="wUI4A6ek1P1sfGZqBGmO-57" value="" style="triangle;whiteSpace=wrap;html=1;direction=north;" vertex="1" parent="1">
          <mxGeometry x="-485" y="470" width="50" height="20" as="geometry" />
        </mxCell>
        <mxCell id="wUI4A6ek1P1sfGZqBGmO-58" value="" style="endArrow=none;html=1;rounded=0;entryX=0;entryY=0.5;entryDx=0;entryDy=0;" edge="1" target="wUI4A6ek1P1sfGZqBGmO-57" parent="1">
          <mxGeometry width="50" height="50" relative="1" as="geometry">
            <mxPoint x="-460" y="520" as="sourcePoint" />
            <mxPoint x="-415" y="430" as="targetPoint" />
          </mxGeometry>
        </mxCell>
        <mxCell id="wUI4A6ek1P1sfGZqBGmO-59" value="" style="endArrow=none;html=1;rounded=0;" edge="1" parent="1">
          <mxGeometry width="50" height="50" relative="1" as="geometry">
            <mxPoint x="-405" y="520" as="sourcePoint" />
            <mxPoint x="-515" y="520" as="targetPoint" />
          </mxGeometry>
        </mxCell>
        <mxCell id="wUI4A6ek1P1sfGZqBGmO-60" value="" style="endArrow=none;html=1;rounded=0;exitX=0.5;exitY=0;exitDx=0;exitDy=0;" edge="1" parent="1" source="wUI4A6ek1P1sfGZqBGmO-68">
          <mxGeometry width="50" height="50" relative="1" as="geometry">
            <mxPoint x="-560" y="550" as="sourcePoint" />
            <mxPoint x="-560" y="520" as="targetPoint" />
          </mxGeometry>
        </mxCell>
        <mxCell id="wUI4A6ek1P1sfGZqBGmO-61" value="" style="endArrow=none;html=1;rounded=0;" edge="1" parent="1">
          <mxGeometry width="50" height="50" relative="1" as="geometry">
            <mxPoint x="-405" y="550" as="sourcePoint" />
            <mxPoint x="-405" y="520" as="targetPoint" />
          </mxGeometry>
        </mxCell>
        <mxCell id="wUI4A6ek1P1sfGZqBGmO-62" value="{optional, And }" style="text;html=1;align=center;verticalAlign=middle;whiteSpace=wrap;rounded=0;fontSize=14;" vertex="1" parent="1">
          <mxGeometry x="-475" y="490" width="145" height="30" as="geometry" />
        </mxCell>
        <mxCell id="wUI4A6ek1P1sfGZqBGmO-64" value="" style="endArrow=none;html=1;rounded=0;" edge="1" parent="1">
          <mxGeometry width="50" height="50" relative="1" as="geometry">
            <mxPoint x="-710" y="520" as="sourcePoint" />
            <mxPoint x="-510" y="520" as="targetPoint" />
          </mxGeometry>
        </mxCell>
        <mxCell id="wUI4A6ek1P1sfGZqBGmO-65" value="" style="endArrow=none;html=1;rounded=0;" edge="1" parent="1" target="wUI4A6ek1P1sfGZqBGmO-66">
          <mxGeometry width="50" height="50" relative="1" as="geometry">
            <mxPoint x="-710" y="520" as="sourcePoint" />
            <mxPoint x="-610" y="520" as="targetPoint" />
          </mxGeometry>
        </mxCell>
        <mxCell id="wUI4A6ek1P1sfGZqBGmO-66" value="Bemande EHBO" style="swimlane;fontStyle=1;childLayout=stackLayout;horizontal=1;startSize=26;horizontalStack=0;resizeParent=1;resizeParentMax=0;resizeLast=0;collapsible=1;marginBottom=0;align=center;fontSize=14;strokeColor=#666666;fillColor=#f5f5f5;fontColor=#333333;" vertex="1" parent="1">
          <mxGeometry x="-810" y="560" width="110" height="56" as="geometry" />
        </mxCell>
        <mxCell id="wUI4A6ek1P1sfGZqBGmO-67" value="Telefoontoestel" style="text;strokeColor=none;fillColor=none;spacingLeft=4;spacingRight=4;overflow=hidden;rotatable=0;points=[[0,0.5],[1,0.5]];portConstraint=eastwest;fontSize=12;" vertex="1" parent="wUI4A6ek1P1sfGZqBGmO-66">
          <mxGeometry y="26" width="110" height="30" as="geometry" />
        </mxCell>
        <mxCell id="wUI4A6ek1P1sfGZqBGmO-68" value="AED-toestel" style="swimlane;fontStyle=1;childLayout=stackLayout;horizontal=1;startSize=26;horizontalStack=0;resizeParent=1;resizeParentMax=0;resizeLast=0;collapsible=1;marginBottom=0;align=center;fontSize=14;strokeColor=#666666;fillColor=#f5f5f5;fontColor=#333333;" vertex="1" parent="1">
          <mxGeometry x="-660" y="554" width="120" height="56" as="geometry" />
        </mxCell>
        <mxCell id="wUI4A6ek1P1sfGZqBGmO-69" value="laatste controlle" style="text;strokeColor=none;fillColor=none;spacingLeft=4;spacingRight=4;overflow=hidden;rotatable=0;points=[[0,0.5],[1,0.5]];portConstraint=eastwest;fontSize=12;" vertex="1" parent="wUI4A6ek1P1sfGZqBGmO-68">
          <mxGeometry y="26" width="120" height="30" as="geometry" />
        </mxCell>
        <mxCell id="wUI4A6ek1P1sfGZqBGmO-71" value="EHBO-kasten" style="swimlane;fontStyle=1;childLayout=stackLayout;horizontal=1;startSize=26;horizontalStack=0;resizeParent=1;resizeParentMax=0;resizeLast=0;collapsible=1;marginBottom=0;align=center;fontSize=14;strokeColor=#666666;fillColor=#f5f5f5;fontColor=#333333;" vertex="1" parent="1">
          <mxGeometry x="-485" y="550" width="160" height="56" as="geometry" />
        </mxCell>
        <mxCell id="wUI4A6ek1P1sfGZqBGmO-72" value=" " style="text;strokeColor=none;fillColor=none;spacingLeft=4;spacingRight=4;overflow=hidden;rotatable=0;points=[[0,0.5],[1,0.5]];portConstraint=eastwest;fontSize=12;" vertex="1" parent="wUI4A6ek1P1sfGZqBGmO-71">
          <mxGeometry y="26" width="160" height="30" as="geometry" />
        </mxCell>
        <mxCell id="wUI4A6ek1P1sfGZqBGmO-73" value="Hulpverlenners" style="swimlane;fontStyle=1;childLayout=stackLayout;horizontal=1;startSize=26;horizontalStack=0;resizeParent=1;resizeParentMax=0;resizeLast=0;collapsible=1;marginBottom=0;align=center;fontSize=14;strokeColor=#666666;fillColor=#f5f5f5;fontColor=#333333;" vertex="1" parent="1">
          <mxGeometry x="-460" y="80" width="160" height="100" as="geometry" />
        </mxCell>
        <mxCell id="wUI4A6ek1P1sfGZqBGmO-74" value="&lt;u&gt;code&lt;/u&gt;&lt;div&gt;naam&lt;/div&gt;&lt;div&gt;functie&lt;/div&gt;&lt;div&gt;leeftijd&lt;/div&gt;" style="text;strokeColor=none;fillColor=none;spacingLeft=4;spacingRight=4;overflow=hidden;rotatable=0;points=[[0,0.5],[1,0.5]];portConstraint=eastwest;fontSize=12;html=1;" vertex="1" parent="wUI4A6ek1P1sfGZqBGmO-73">
          <mxGeometry y="26" width="160" height="74" as="geometry" />
        </mxCell>
        <mxCell id="wUI4A6ek1P1sfGZqBGmO-91" value="tickets" style="rounded=0;whiteSpace=wrap;html=1;strokeColor=#000000;" vertex="1" parent="1">
          <mxGeometry x="-102.67000000000002" y="150.00000000000006" width="100" height="20" as="geometry" />
        </mxCell>
        <mxCell id="wUI4A6ek1P1sfGZqBGmO-92" value="" style="endArrow=none;html=1;rounded=0;entryX=1.007;entryY=0.148;entryDx=0;entryDy=0;entryPerimeter=0;exitX=0.006;exitY=0.255;exitDx=0;exitDy=0;exitPerimeter=0;" edge="1" parent="1" source="wUI4A6ek1P1sfGZqBGmO-9" target="wUI4A6ek1P1sfGZqBGmO-10">
          <mxGeometry width="50" height="50" relative="1" as="geometry">
            <mxPoint x="-130" y="380" as="sourcePoint" />
            <mxPoint x="-80" y="330" as="targetPoint" />
          </mxGeometry>
        </mxCell>
        <mxCell id="wUI4A6ek1P1sfGZqBGmO-93" value="" style="endArrow=none;dashed=1;html=1;dashPattern=1 3;strokeWidth=2;rounded=0;entryX=0.75;entryY=1;entryDx=0;entryDy=0;" edge="1" parent="1" target="wUI4A6ek1P1sfGZqBGmO-91">
          <mxGeometry width="50" height="50" relative="1" as="geometry">
            <mxPoint x="90" y="290" as="sourcePoint" />
            <mxPoint x="-80" y="330" as="targetPoint" />
          </mxGeometry>
        </mxCell>
        <mxCell id="wUI4A6ek1P1sfGZqBGmO-95" value="" style="endArrow=none;html=1;rounded=0;entryX=0.75;entryY=0;entryDx=0;entryDy=0;exitX=0.492;exitY=1.039;exitDx=0;exitDy=0;exitPerimeter=0;" edge="1" parent="1" source="wUI4A6ek1P1sfGZqBGmO-9" target="wUI4A6ek1P1sfGZqBGmO-26">
          <mxGeometry width="50" height="50" relative="1" as="geometry">
            <mxPoint x="-130" y="380" as="sourcePoint" />
            <mxPoint x="-80" y="330" as="targetPoint" />
          </mxGeometry>
        </mxCell>
        <mxCell id="wUI4A6ek1P1sfGZqBGmO-96" value="" style="endArrow=none;html=1;rounded=0;entryX=1;entryY=0.5;entryDx=0;entryDy=0;exitX=0;exitY=0.5;exitDx=0;exitDy=0;" edge="1" parent="1" source="wUI4A6ek1P1sfGZqBGmO-27" target="wUI4A6ek1P1sfGZqBGmO-56">
          <mxGeometry width="50" height="50" relative="1" as="geometry">
            <mxPoint x="-130" y="380" as="sourcePoint" />
            <mxPoint x="-80" y="330" as="targetPoint" />
          </mxGeometry>
        </mxCell>
        <mxCell id="wUI4A6ek1P1sfGZqBGmO-98" value="" style="endArrow=none;html=1;rounded=0;entryX=0.006;entryY=0.615;entryDx=0;entryDy=0;entryPerimeter=0;" edge="1" parent="1" target="wUI4A6ek1P1sfGZqBGmO-74">
          <mxGeometry width="50" height="50" relative="1" as="geometry">
            <mxPoint x="-560" y="150" as="sourcePoint" />
            <mxPoint x="-80" y="330" as="targetPoint" />
          </mxGeometry>
        </mxCell>
        <mxCell id="wUI4A6ek1P1sfGZqBGmO-99" value="" style="endArrow=none;html=1;rounded=0;" edge="1" parent="1">
          <mxGeometry width="50" height="50" relative="1" as="geometry">
            <mxPoint x="-560" y="40" as="sourcePoint" />
            <mxPoint x="-560" y="150" as="targetPoint" />
          </mxGeometry>
        </mxCell>
        <mxCell id="wUI4A6ek1P1sfGZqBGmO-100" value="" style="endArrow=none;html=1;rounded=0;" edge="1" parent="1">
          <mxGeometry width="50" height="50" relative="1" as="geometry">
            <mxPoint x="-420" y="40" as="sourcePoint" />
            <mxPoint x="-560" y="40" as="targetPoint" />
          </mxGeometry>
        </mxCell>
        <mxCell id="wUI4A6ek1P1sfGZqBGmO-101" value="" style="endArrow=none;html=1;rounded=0;exitX=0.25;exitY=0;exitDx=0;exitDy=0;" edge="1" parent="1" source="wUI4A6ek1P1sfGZqBGmO-73">
          <mxGeometry width="50" height="50" relative="1" as="geometry">
            <mxPoint x="-130" y="380" as="sourcePoint" />
            <mxPoint x="-420" y="40" as="targetPoint" />
          </mxGeometry>
        </mxCell>
        <mxCell id="wUI4A6ek1P1sfGZqBGmO-102" value="" style="endArrow=none;html=1;rounded=0;entryX=1.006;entryY=0.615;entryDx=0;entryDy=0;entryPerimeter=0;exitX=0;exitY=0.5;exitDx=0;exitDy=0;" edge="1" parent="1" source="wUI4A6ek1P1sfGZqBGmO-11" target="wUI4A6ek1P1sfGZqBGmO-74">
          <mxGeometry width="50" height="50" relative="1" as="geometry">
            <mxPoint x="-130" y="380" as="sourcePoint" />
            <mxPoint x="-80" y="330" as="targetPoint" />
          </mxGeometry>
        </mxCell>
        <mxCell id="wUI4A6ek1P1sfGZqBGmO-103" value="Ishoodftvan" style="text;html=1;align=center;verticalAlign=middle;whiteSpace=wrap;rounded=0;" vertex="1" parent="1">
          <mxGeometry x="-570" y="10" width="150" height="30" as="geometry" />
        </mxCell>
        <mxCell id="wUI4A6ek1P1sfGZqBGmO-104" value="&amp;lt;heeft" style="text;html=1;align=center;verticalAlign=middle;whiteSpace=wrap;rounded=0;" vertex="1" parent="1">
          <mxGeometry x="30" y="360" width="130" height="30" as="geometry" />
        </mxCell>
        <mxCell id="wUI4A6ek1P1sfGZqBGmO-105" value="U" style="ellipse;whiteSpace=wrap;html=1;strokeColor=#b85450;fillColor=#f8cecc;" vertex="1" parent="1">
          <mxGeometry x="-390" y="310" width="40" height="40" as="geometry" />
        </mxCell>
        <mxCell id="wUI4A6ek1P1sfGZqBGmO-106" value="" style="endArrow=none;html=1;rounded=0;entryX=1;entryY=1;entryDx=0;entryDy=0;" edge="1" parent="1" target="wUI4A6ek1P1sfGZqBGmO-105">
          <mxGeometry width="50" height="50" relative="1" as="geometry">
            <mxPoint x="-310" y="470" as="sourcePoint" />
            <mxPoint x="-80" y="330" as="targetPoint" />
          </mxGeometry>
        </mxCell>
        <mxCell id="wUI4A6ek1P1sfGZqBGmO-108" value="" style="endArrow=none;html=1;rounded=0;entryX=0;entryY=1;entryDx=0;entryDy=0;exitX=0.25;exitY=0.318;exitDx=0;exitDy=0;exitPerimeter=0;" edge="1" parent="1" source="wUI4A6ek1P1sfGZqBGmO-56" target="wUI4A6ek1P1sfGZqBGmO-105">
          <mxGeometry width="50" height="50" relative="1" as="geometry">
            <mxPoint x="-130" y="380" as="sourcePoint" />
            <mxPoint x="-80" y="330" as="targetPoint" />
          </mxGeometry>
        </mxCell>
      </root>
    </mxGraphModel>
  </diagram>
</mxfile>
